HIERARCHY
ROOT Hips
{
 OFFSET 0.000000 0.000000 0.000000
 CHANNELS 6 Xposition Yposition Zposition Yrotation Xrotation Zrotation
 JOINT Chest
 {
  OFFSET 0.000000 9.585900 0.002600
  CHANNELS 3 Yrotation Xrotation Zrotation
  JOINT Chest2
  {
   OFFSET 0.000000 9.601200 -0.005300
   CHANNELS 3 Yrotation Xrotation Zrotation
   JOINT Chest3
   {
    OFFSET 0.000000 9.561800 0.000000
    CHANNELS 3 Yrotation Xrotation Zrotation
    JOINT Chest4
    {
     OFFSET 0.000000 9.552100 0.000000
     CHANNELS 3 Yrotation Xrotation Zrotation
     JOINT Neck
     {
      OFFSET 0.000000 14.453000 0.000000
      CHANNELS 3 Yrotation Xrotation Zrotation
      JOINT Head
      {
       OFFSET 0.000000 8.936500 -0.011300
       CHANNELS 3 Yrotation Xrotation Zrotation
       End Site
       {
        OFFSET 0.000000 17.073600 -0.006000
       }
      }
     }
     JOINT RightCollar
     {
      OFFSET -2.921100 9.558500 0.000000
      CHANNELS 3 Yrotation Xrotation Zrotation
      JOINT RightShoulder
      {
       OFFSET -13.519700 0.000000 0.000000
       CHANNELS 3 Yrotation Xrotation Zrotation
       JOINT RightElbow
       {
        OFFSET 0.000000 -29.696600 0.000000
        CHANNELS 3 Yrotation Xrotation Zrotation
        JOINT RightWrist
        {
         OFFSET 0.000000 -24.004700 0.000000
         CHANNELS 3 Yrotation Xrotation Zrotation
         End Site
         {
          OFFSET 0.000000 -17.728500 0.000000
         }
        }
       }
      }
     }
     JOINT LeftCollar
     {
      OFFSET 2.921100 9.558500 0.000000
      CHANNELS 3 Yrotation Xrotation Zrotation
      JOINT LeftShoulder
      {
       OFFSET 13.519700 0.000000 0.000000
       CHANNELS 3 Yrotation Xrotation Zrotation
       JOINT LeftElbow
       {
        OFFSET 0.000000 -29.696600 0.000000
        CHANNELS 3 Yrotation Xrotation Zrotation
        JOINT LeftWrist
        {
         OFFSET 0.000000 -24.004700 0.000000
         CHANNELS 3 Yrotation Xrotation Zrotation
         End Site
         {
          OFFSET 0.000000 -17.728500 0.000000
         }
        }
       }
      }
     }
    }
   }
  }
 }
 JOINT RightHip
 {
  OFFSET -7.771700 -0.012900 -0.001300
  CHANNELS 3 Yrotation Xrotation Zrotation
  JOINT RightKnee
  {
   OFFSET 0.000000 -40.869800 0.001200
   CHANNELS 3 Yrotation Xrotation Zrotation
   JOINT RightAnkle
   {
    OFFSET 0.000000 -39.717900 0.002100
    CHANNELS 3 Yrotation Xrotation Zrotation
    JOINT RightToe
    {
     OFFSET 0.000000 -4.965400 11.033500
     CHANNELS 3 Yrotation Xrotation Zrotation
     End Site
     {
      OFFSET 0.000000 -1.423100 5.872300
     }
    }
   }
  }
 }
 JOINT LeftHip
 {
  OFFSET 7.771700 -0.012900 -0.001300
  CHANNELS 3 Yrotation Xrotation Zrotation
  JOINT LeftKnee
  {
   OFFSET 0.000000 -40.869800 0.001200
   CHANNELS 3 Yrotation Xrotation Zrotation
   JOINT LeftAnkle
   {
    OFFSET 0.000000 -39.717900 0.002100
    CHANNELS 3 Yrotation Xrotation Zrotation
    JOINT LeftToe
    {
     OFFSET 0.000000 -4.965400 11.033500
     CHANNELS 3 Yrotation Xrotation Zrotation
     End Site
     {
      OFFSET 0.000000 -1.423100 5.872300
     }
    }
   }
  }
 }
}
MOTION
Frames: 13
Frame Time: 0.008333
0.000000 85.388000 0.000000 0.000000 -5.767877 0.000000 0.000000 11.653817 0.000000 0.000000 -5.885947 0.000000 0.000000 -0.000000 0.000000 0.000000 -0.000000 0.000000 0.000000 12.528835 0.000000 0.000000 0.711642 0.000000 0.000000 -0.000000 0.000000 0.000000 0.000000 -90.000000 0.000000 -2.309062 0.000000 0.000000 2.309062 0.000000 0.000000 -0.000000 0.000000 0.000000 -0.000000 90.000000 0.000000 -2.309062 0.000000 0.000000 2.309062 0.000000 0.000000 8.520406 0.000000 0.000000 1.905762 0.000000 -0.000000 -4.658285 0.000000 0.000000 -0.000000 0.000000 0.000000 8.520406 0.000000 0.000000 1.905762 0.000000 -0.000000 -4.658285 0.000000 0.000000 -0.000000 0.000000
-8.710326 55.757890 23.587683 -178.261021 -29.855290 -10.991124 -1.385765 11.457892 4.460839 -0.645846 6.664385 2.008322 -0.800838 8.342793 2.500440 -0.669053 6.671715 2.006716 11.899864 18.713388 6.623116 11.769567 -5.324990 4.600154 5.234624 1.158626 -3.033927 -24.861313 -33.244706 4.449448 -89.526165 -76.373444 93.324389 1.526510 -11.615521 -50.155936 -8.443155 1.920919 -2.599850 7.294089 -3.892370 -2.630333 -76.865577 -74.956842 77.689794 14.954881 -8.692708 2.591776 -21.796012 -34.596301 9.308068 -9.161594 85.716679 -11.670401 1.675655 -17.062971 -1.957049 -0.005085 0.603946 -0.026895 -14.699801 -47.609829 15.484058 174.335668 79.918366 169.433135 -2.166976 -17.671563 2.360803 -0.125094 -1.078373 -0.075664
-8.702462 55.756309 23.588530 -178.299391 -29.851812 -10.985723 -1.364003 11.453621 4.471115 -0.646719 6.668538 2.012876 -0.804868 8.363249 2.509960 -0.654254 6.672702 2.010689 11.810478 18.749641 6.588136 11.672155 -5.282519 4.592278 5.235724 1.131150 -3.048395 -24.838931 -33.240742 4.452866 -89.517361 -76.348448 93.381118 1.508625 -11.578076 -50.076270 -8.449339 1.906830 -2.606070 7.284434 -3.888433 -2.642895 -76.946849 -74.963246 77.779399 14.968310 -8.722403 2.566826 -21.796800 -34.600714 9.335126 -9.219036 85.715257 -11.716564 1.670814 -17.060480 -1.972720 -0.004902 0.604145 -0.028550 -14.715321 -47.616341 15.501421 174.249611 79.905501 169.358533 -2.149066 -17.668463 2.335184 -0.126882 -1.090079 -0.078020
-8.694709 55.755017 23.588074 -178.321005 -29.851434 -10.984246 -1.360102 11.456276 4.474944 -0.653839 6.677718 2.013374 -0.791248 8.365162 2.515226 -0.644687 6.663285 2.005833 11.729642 18.807114 6.581792 11.581066 -5.235580 4.589211 5.246718 1.127325 -3.018932 -24.798253 -33.251198 4.421300 -89.548923 -76.333644 93.465144 1.496094 -11.547525 -49.958892 -8.451118 1.907018 -2.604684 7.270113 -3.876003 -2.642928 -77.066971 -74.979340 77.871664 14.971016 -8.736778 2.576184 -21.802088 -34.600611 9.350099 -9.156838 85.717491 -11.650059 1.703181 -17.058138 -1.993851 -0.003505 0.602903 -0.027189 -14.719940 -47.617231 15.508608 174.213649 79.897470 169.334322 -2.138115 -17.676452 2.318953 -0.126407 -1.090634 -0.076327
-8.687097 55.753685 23.587087 -178.335879 -29.850058 -10.983477 -1.363260 11.463351 4.479191 -0.649941 6.680875 2.015226 -0.789050 8.365014 2.518232 -0.638413 6.670750 2.006849 11.651859 18.854293 6.569083 11.495187 -5.180982 4.589491 5.252456 1.109893 -3.026058 -24.697368 -33.249561 4.409633 -89.693071 -76.368616 93.604334 1.489843 -11.513564 -49.802774 -8.457848 1.906306 -2.601521 7.260317 -3.876114 -2.648784 -77.178865 -75.002062 77.966368 14.968087 -8.736854 2.575838 -21.811053 -34.600810 9.359417 -9.071448 85.722571 -11.562677 1.759321 -17.057605 -2.021215 -0.001813 0.602597 -0.022935 -14.726271 -47.619016 15.511946 174.185974 79.889954 169.317546 -2.127730 -17.684843 2.305692 -0.127218 -1.090258 -0.075885
-8.678351 55.751367 23.587929 -178.384928 -29.838496 -10.972451 -1.339029 11.453993 4.487728 -0.647641 6.682166 2.017850 -0.780611 8.363969 2.522280 -0.641601 6.674433 2.009367 11.586781 18.911084 6.560849 11.414406 -5.120931 4.592393 5.265947 1.098835 -3.011823 -24.628909 -33.261098 4.376585 -89.801334 -76.415194 93.740860 1.486519 -11.466988 -49.620203 -8.475908 1.926048 -2.586500 7.267157 -3.889140 -2.668956 -77.278915 -75.023441 78.024847 14.963992 -8.732581 2.584305 -21.806119 -34.615278 9.401276 -9.046623 85.723584 -11.538018 1.758507 -17.054889 -2.035752 -0.013394 0.603317 -0.020878 -14.722770 -47.632211 15.538145 174.201679 79.881768 169.339208 -2.116805 -17.694039 2.291412 -0.123553 -1.090710 -0.076422
-8.671225 55.749210 23.587801 -178.414893 -29.826349 -10.962935 -1.327199 11.447108 4.495744 -0.646545 6.683075 2.019790 -0.778684 8.364333 2.523926 -0.640790 6.675985 2.011965 11.525643 18.968819 6.553207 11.338961 -5.058201 4.597573 5.293045 1.078764 -2.974771 -24.567535 -33.274595 4.310839 -89.923782 -76.494115 93.897356 1.481108 -11.403171 -49.425997 -8.472726 1.917904 -2.595074 7.250988 -3.878404 -2.662449 -77.319055 -75.038591 78.070117 14.969467 -8.719985 2.528840 -21.796528 -34.630522 9.420799 -8.891636 85.728375 -11.363978 1.733950 -17.056471 -2.054508 -0.039324 0.603629 -0.016402 -14.738333 -47.646140 15.544312 174.140411 79.870679 169.287864 -2.097810 -17.698854 2.268935 -0.122550 -1.093637 -0.083186
-8.665017 55.747815 23.586049 -178.430158 -29.819614 -10.958248 -1.339503 11.453419 4.492435 -0.650627 6.692073 2.028946 -0.760960 8.354441 2.526303 -0.637555 6.681001 2.026927 11.463499 19.023202 6.531480 11.269758 -4.994450 4.603629 5.313651 1.052378 -2.975803 -24.503736 -33.276839 4.263904 -90.070075 -76.608668 94.076360 1.476393 -11.325091 -49.231290 -8.484542 1.913949 -2.608594 7.252284 -3.880807 -2.665827 -77.344215 -75.056504 78.097029 14.968615 -8.704312 2.482424 -21.791034 -34.636490 9.444304 -9.013121 85.729687 -11.471807 1.688798 -17.061276 -2.050707 -0.016713 0.603868 -0.019183 -14.741852 -47.654015 15.544917 174.113317 79.862367 169.268817 -2.088548 -17.705478 2.254187 -0.126683 -1.095920 -0.078947
-8.640137 55.743749 23.595738 -178.387816 -29.729052 -11.097508 -1.393482 11.399381 4.616209 -0.636982 6.680463 2.030833 -0.754559 8.347716 2.523319 -0.639422 6.682474 2.033791 11.410439 19.083733 6.533048 11.208298 -4.932284 4.608561 5.327123 1.039407 -2.973767 -24.452192 -33.269054 4.238723 -90.235427 -76.749536 94.296687 1.476903 -11.244743 -49.044595 -8.484108 1.938429 -2.597578 7.245856 -3.901780 -2.682177 -77.353460 -75.070107 78.068622 14.959856 -8.696824 2.479727 -21.940539 -34.657125 9.621960 -8.997785 85.704979 -11.448368 1.793340 -17.030972 -2.090694 -0.005921 0.594437 -0.017412 -14.994159 -47.807453 15.786873 174.186084 79.772811 169.351386 -2.011952 -17.422334 2.246661 -0.189079 -1.364471 -0.101283
-8.633615 55.742311 23.594340 -178.404670 -29.715259 -11.101751 -1.391498 11.396891 4.634083 -0.630749 6.674037 2.028622 -0.754975 8.346524 2.524671 -0.636818 6.679814 2.031040 11.361676 19.145731 6.547317 11.155203 -4.873957 4.609769 5.340573 1.026053 -2.960376 -24.440288 -33.258180 4.215472 -90.344413 -76.883182 94.510550 1.484308 -11.172154 -48.865211 -8.478472 1.960892 -2.582307 7.239060 -3.921797 -2.700686 -77.347885 -75.071683 78.049108 14.956993 -8.687361 2.461973 -21.949332 -34.669802 9.633872 -8.643366 85.713392 -11.111458 1.958693 -17.017911 -2.139900 -0.000844 0.591159 -0.009381 -15.007763 -47.822388 15.802194 174.147568 79.761559 169.324603 -2.004941 -17.428349 2.232375 -0.191292 -1.368151 -0.099980
-8.629734 55.739995 23.593612 -178.430002 -29.694873 -11.090333 -1.386293 11.386611 4.641113 -0.623794 6.667729 2.027006 -0.760813 8.354324 2.535726 -0.637460 6.680866 2.034338 11.338943 19.167343 6.529684 11.084158 -4.794354 4.627345 5.417026 0.944622 -2.915782 -24.458493 -33.158700 4.124388 -90.650082 -77.011424 94.972630 1.502922 -11.107969 -48.695698 -8.465881 1.962068 -2.587213 7.225607 -3.931052 -2.697517 -77.346082 -75.092834 78.051714 14.955604 -8.684506 2.457912 -21.940970 -34.694002 9.652843 -8.631986 85.718294 -11.085839 1.937326 -17.020060 -2.152392 -0.001881 0.593154 -0.006503 -15.003171 -47.847054 15.804513 174.108014 79.752464 169.292348 -2.002486 -17.432421 2.224650 -0.189285 -1.372084 -0.099478
-8.626630 55.738672 23.590967 -178.444456 -29.683875 -11.084794 -1.382092 11.380484 4.645485 -0.633991 6.676094 2.035021 -0.779517 8.370512 2.557083 -0.625306 6.668742 2.019554 11.323292 19.187031 6.507793 11.023105 -4.715949 4.638093 5.498738 0.880874 -2.903031 -24.513859 -33.025806 4.063444 -91.080939 -77.107738 95.608565 1.530807 -11.055432 -48.546639 -8.446368 1.961947 -2.595390 7.208995 -3.941968 -2.692495 -77.321110 -75.112782 78.011147 14.938553 -8.677406 2.473898 -21.935555 -34.703520 9.677297 -8.824945 85.718616 -11.263463 1.856457 -17.028879 -2.143487 -0.049076 0.594821 -0.005870 -15.000985 -47.858995 15.803424 174.098852 79.745056 169.288423 -1.996143 -17.440481 2.216799 -0.189528 -1.373513 -0.096171
-8.624524 55.737607 23.587694 -178.452417 -29.673977 -11.081296 -1.382672 11.376292 4.648540 -0.641877 6.683148 2.042359 -0.781094 8.368461 2.556094 -0.627957 6.672218 2.029917 11.288327 19.237968 6.495217 10.991164 -4.661706 4.624849 5.566608 0.835561 -2.907216 -24.564471 -32.883710 3.995811 -91.516409 -77.167105 96.274672 1.563557 -11.019642 -48.420830 -8.429926 1.967483 -2.604104 7.183624 -3.953791 -2.678981 -77.256397 -75.113217 77.926618 14.939840 -8.693628 2.482326 -21.931346 -34.711879 9.696382 -8.907973 85.721436 -11.338805 1.792407 -17.036313 -2.133551 -0.011165 0.595932 -0.005573 -15.000504 -47.869779 15.804587 174.089129 79.737261 169.278454 -1.996468 -17.445065 2.216209 -0.193693 -1.379636 -0.092004
